/* XPM */
static char *cat[] = {
/* columns rows colors chars-per-pixel */
"64 40 229 2 ",
"   c #08070D",
".  c #0A090F",
"X  c #07060D",
"o  c #0D0B12",
"O  c #0C0E1B",
"+  c #110E14",
"@  c #0E101D",
"#  c #131116",
"$  c #13131B",
"%  c #19161B",
"&  c #1D191E",
"*  c #1B1413",
"=  c #231C1C",
"-  c #0B0F20",
";  c #0D1123",
":  c #0D152C",
">  c #131622",
",  c #161825",
"<  c #1B1B24",
"1  c #151A2C",
"2  c #1B1D2B",
"3  c #131726",
"4  c #0F1833",
"5  c #0E1731",
"6  c #131B34",
"7  c #191E33",
"8  c #131D3B",
"9  c #221E22",
"0  c #201F28",
"q  c #1E202E",
"w  c #1C2134",
"e  c #16203E",
"r  c #1C233C",
"t  c #262124",
"y  c #2B2425",
"u  c #24222B",
"i  c #2E292B",
"p  c #2B2629",
"a  c #322A27",
"s  c #332C2A",
"d  c #3B2F27",
"f  c #3C332B",
"g  c #37312D",
"h  c #232433",
"j  c #2C2B34",
"k  c #24293B",
"l  c #272A3C",
"z  c #302E32",
"x  c #343133",
"c  c #3A3737",
"v  c #2E303C",
"b  c #2F2117",
"n  c #49301C",
"m  c #42362A",
"M  c #46392C",
"N  c #4A3C2C",
"B  c #433C33",
"V  c #453B36",
"C  c #513925",
"Z  c #58452C",
"A  c #4D4335",
"S  c #44413C",
"D  c #4A453A",
"F  c #544533",
"G  c #5C4B35",
"H  c #534C3B",
"J  c #564937",
"K  c #5D5239",
"L  c #4E412E",
"P  c #7B592F",
"I  c #76562D",
"U  c #624D35",
"Y  c #63583C",
"T  c #6A5536",
"R  c #775B37",
"E  c #6D4C28",
"W  c #78613D",
"Q  c #162142",
"!  c #192444",
"~  c #1A264A",
"^  c #1C294C",
"/  c #292E42",
"(  c #222B45",
")  c #2C3346",
"_  c #353A47",
"`  c #293857",
"'  c #323C51",
"]  c #2D3F60",
"[  c #3C4149",
"{  c #394458",
"}  c #2E4367",
"|  c #334665",
" . c #3C5777",
".. c #3D526B",
"X. c #464748",
"o. c #5A5746",
"O. c #464B54",
"+. c #49545C",
"@. c #575958",
"#. c #565144",
"$. c #665D49",
"%. c #705E4D",
"&. c #6C6547",
"*. c #786746",
"=. c #6C6A54",
"-. c #7A7758",
";. c #7A6F4F",
":. c #47586A",
">. c #4A5F75",
",. c #575E62",
"<. c #5B6767",
"1. c #4A667B",
"2. c #536976",
"3. c #57757B",
"4. c #656B65",
"5. c #7A7C65",
"6. c #647876",
"7. c #64786E",
"8. c #5E6359",
"9. c #88592B",
"0. c #825E34",
"q. c #815D38",
"w. c #975E27",
"e. c #8C6335",
"r. c #83633C",
"t. c #8A653A",
"y. c #896539",
"u. c #946A3D",
"i. c #9B6D3B",
"p. c #966634",
"a. c #996631",
"s. c #AC6C2D",
"d. c #A76728",
"f. c #BC6E25",
"g. c #B36D2A",
"h. c #BC742D",
"j. c #B7722D",
"k. c #A56D33",
"l. c #A87239",
"z. c #B47533",
"x. c #B97A38",
"c. c #C1742A",
"v. c #C17B32",
"b. c #8C6B44",
"n. c #8B6E4A",
"m. c #856844",
"M. c #936E43",
"N. c #9A6F40",
"B. c #88724B",
"V. c #957146",
"C. c #9B7244",
"Z. c #94734B",
"A. c #9B764B",
"S. c #9C794F",
"D. c #8B7757",
"F. c #957651",
"G. c #9C7B54",
"H. c #987C58",
"J. c #A37543",
"K. c #A87A47",
"L. c #A37E53",
"P. c #B07A41",
"I. c #867C66",
"U. c #6C876D",
"Y. c #658B7B",
"T. c #76876C",
"R. c #9E825B",
"E. c #958658",
"W. c #89845B",
"Q. c #B7854A",
"!. c #A3845C",
"~. c #A98558",
"^. c #B48B57",
"/. c #B4925D",
"(. c #858768",
"). c #9C8463",
"_. c #978567",
"`. c #89906A",
"'. c #969274",
"]. c #A28662",
"[. c #A68C67",
"{. c #AA9669",
"}. c #B49665",
"|. c #A38F71",
" X c #AE9672",
".X c #AA9A7A",
"XX c #B49C76",
"oX c #B9A47A",
"OX c #B9A069",
"+X c #C7AA76",
"@X c #C4A66E",
"#X c #3F6186",
"$X c #415F81",
"%X c #476889",
"&X c #567587",
"*X c #4A7795",
"=X c #547891",
"-X c #667883",
";X c #538697",
":X c #5D9595",
">X c #5B8888",
",X c #63948D",
"<X c #638599",
"1X c #6F8B8F",
"2X c #5799A6",
"3X c #528EA7",
"4X c #6E96A5",
"5X c #55A4B5",
"6X c #54A6B8",
"7X c #59A7B7",
"8X c #5BA1AD",
"9X c #76A1AC",
"0X c #889B92",
"qX c #AD9E83",
"wX c #97A493",
"eX c #B6A685",
"rX c #B9B29B",
"tX c #ACA991",
"yX c #87A7AB",
"uX c #9AB6B4",
"iX c #96B1AE",
"pX c #AEBAAD",
"aX c #C6B186",
"sX c #C7B999",
"dX c #C7BDA1",
"fX c #BBC2B5",
"gX c #C7C1AB",
"hX c #C8C6B4",
"jX c #C6C6B5",
/* pixels */
"o O < % o @ @ o O O @ O O o o O o O @ 3 w u 9 9 0 9 9 % % # + + & % # # . % @ O & % o @ % % o O % @ % > % X X o X o + . . . # . ",
"o o O % o % $ o . O @ 3 O + $ # @ o > 0 j x 0 i B B i 9 & & # % % o # . # % # # < % @ @ @ @ @ O @ ; ; > O o o o . # . . . . # . ",
"o o ; % @ @ O o # % $ q O $ $ q O > 3 h j v j V &.E.*.B i & % % $ % # # # # # # < 3 ; % % % % o @ % @ @ o X o . o % O . o . . # ",
"@ @ % @ % # o o $ $ @ $ $ O @ O O > / j j j B &.eXsX[.A i t & % & $ & % # # 9 j u > 3 6 3 < % @ @ # O . o . . . . o . . . & . . ",
"# % @ @ % @ % @ > $ @ $ @ $ @ @ > : w 0 j v V m.sXdXE.B i t 9 & $ $ $ $ # $ z [ j w e e w q 3 > % @ @ % o X . o . . . . . # o . ",
"@ @ % < % % > % $ 3 $ 3 > @ @ @ > 3 w h j j v %.E.!.Y c u 9 & < q q q > > t c .._ k r r ! ( r w 3 3 @ % o o o .   . . . . . . # ",
"@ % % > @ > > ; 3 6 3 $ @ @ @ @ > 0 w w w h j o.K J B s u < < 3 > q w 5 q j [  .{ / / _ ( k r w w 2 > > % o o o . # + . . . O # ",
"% @ ; > ; 3 6 : : 6 : 3 3 @ q @ @ 3 w 7 6 w h i g x c S j u 2 3 q > q r r { ..>...' ) _ ) ( k w w q < < % o o o . o o o . # . . ",
"> > > 3 : 5 4 4 4 e 5 3 3 @ @ O @ 1 8 e e 8 7 0 j j z V j h 3 3 w w e ^ }  .%X>...| v [ [ ) v j 0 u 2 7 < % o & + . . + o + o + ",
"> 3 3 4 5 4 Q 4 8 e 5 6 y L y @ : 1 8 e 8 8 7 w l j j 0 0 w 3 3 w ! ^ `  .*X2.2.1. .[ { { [ c z x x j u u & % t + o . . . . o o ",
"3 3 : 4 8 8 Q Q e e 4 q E k.w.d 1 e e ~ 8 r r 7 w l i w w w w w q ^ ) } %X%X1.3.3.>.{ { O.O.[ S X.c c s y 9 & * + # # # $ + * . ",
"7 w 5 8 Q Q Q Q ! 8 e w 9.J.l.e.s r k ~ 8 e k 7 6 r k l [ N U j r ( } }  .*X2.2.3.>.+.+.,.8.@.O.X.D m m s y 9 % * = & $ + + + . ",
"7 3 / ( Q Q ! Q ! Q Q j w.J.A.i.9.m.D.H.%.@.@.O.O.' _ %.L.K.p.V ) ` | ..%X;X&XY.3.1.<.<.4.(.=.@.K J Z N f s y & & = 9 % * O . . ",
"4 4 / ( Q ~ ~ ~ ^ ! ! / a.l.K.u.a.P.P.L.XXeXXXXX[.G.L.L.L.L.0.X.{ }  . .*X;X>X3.3.2.<.4.5.wXT.W T Z Z Z Z m y y u t i t A g # + ",
"4 1 8 Q Q ~ ! ^ ^ ^ ~ / u.A.Z.u.J.^./.}.XX}.^.eXXXXXK.J.H.J.q.] }  .1.%X;X:XY.Y.7.Y.U.U.T.`.W.;.Y E Z E Z J g s s y f F K a # $ ",
"v 4 4 8 Q ~ ~ ^ ^ ! ! v w.a.M.~./.^./.Q.}.P.P.^.eXeX XL.Z.N.=.#X .#X*X;X:X:X,X>XU.U.T.`.{.}.[.E.B.W T T F A m f a f Z *.m = * + ",
"c : : 4 Q ~ ^ Q 8 5 5 V d.s.P.^.^.P.A.L. X~.J.J.[. XeX XZ.y.6.%X*X:X2X8X8X:X,XY.U.T..XoX+X+XOX/.E.W.R T K H L f d y y i y = $ # ",
"O - - 5 Q ~ ^ Q 8 8 5 U Q.P.x.x.L.S.*.H.rXeX XA.b.T m.L.!.n.=X3X6X5X5X6X8X8X:XU.T.{.oXaXdXdXaX@X{.E.T.Y Y G A L f i y = = = = O ",
"O - - : Q Q Q Q 6 Q 6 %.}.P.x.P.}.Z.*.L.rXrXeX.XD.K q.A.~.'.2X6X6X6X6X6X6X8X,XU.`.OX+XhXhXhXgXsXeX{.B.W Y G Z N f i a q * $ $ o ",
"o O : : 4 8 8 8 6 6 r n.^.P.P.J.^.^.[.L.[.aX[.].Z.;.R.rXeX].1X7X6X6X6X6X6X8XY.U.`.OX+XgXhXhXhXgXdXtXT.W K G Z L L D B y = # # # ",
"o O - : 5 5 5 5 4 4 k S.~.J.L.L.P.J.^. X XJ.s.u._.eXeXeX Xu.5.7X6X5X5X:X>X<.U.&.W.{.+XsXjXjXjXjXfXwXT.&.K J L M J W.`.S = $ # o ",
"o O - - - - - 5 5 8 V J.L.[.[.J.N.]. X XeX].N.H.qXqX.X XA.0.*.;X%XY.Y.+.o.o.Z Y B.E.OX+XsXsXgXfXwX'.-.&.K J L m f *.T.S $ O o o ",
"o - O - - - 5 - : 6 *.P.L.~.C.u.L.eX X]..X].].qXqX.X|.Z.y.P T O.[ c c c D H K Y W B.E.OXeXrXpXpXwX`.&.o.H A L f f f f = $ o   o ",
"O O O - - : 5 - : x l.P.J.J.L.H.|.XX].L.L.r.m._.|.|.[.P r.t.J i j g c B A L Z K Y W T.T.wXiXpXjXuX1X8.K D D S f a y = # o     b ",
"O O O O o - - - 4 q.c.z.l.A.H.G.H.|.H.b.t.F.H.n.H._.G.m.e.P f q p g A K K A A A F Y =.6.yXiXjXpXyX-X-X4.<.+.X.x a & $ o o .   + ",
"O - - O - - - 1 G z.z.s.i.A.!.H.].|.Z.Z.]. X XF.q.n.R *.m.E = # & g -.tX(.F m m V #.o.4.0XiXpX0X1X1X9X4X-X,.[ j u $ # . o o     ",
"o O O O - : 1 x d.v.z.z.J.N.A.H.[.I.|.D.S.H.A.q.P q.R r.e.J # + & m W.sX).J m m V S #.#.4.4.$.6.9XiXpXyX&X:._ j & # O   o       ",
"o O : - O 4 3 9.v.v.z.k.i.M.t.Z.H.H.|.H.R P I I P 0.r.q.T i % + % y A Y J m f f m V V #.<.1X=XyXuXiX9X<X>.O.) > # o     .       ",
"o - 4 : O 1 M g.v.v.z.l.N.C.V.b.m.n.H.I.H.n.P P q.y.0.I g O # % % < y a d a a a d d V X.=XyX9XuXuX9X3X>.{ v q % +       .     o ",
"- 5 8 4 - % 9.c.c.z.z.P.J.C.M.b.m.b.n.D.%.%.U I I P P Z # o # # + * % & 9 y y t y a x _ :.=XyXyX<X4X=X%X{ k > >       o o       ",
"o - - - X n g.h.g.s.s.N.J.u.u.A.L.L.H.H.L.].H.r.q.e.P Z # o # . o + # % % = < 9 u u s x { $X=X=X=X=X=X$X} w $ # .               ",
"X o o 3 o E c.c.x.z.d.N.K.A.t.Z.Z.n.F.S.G.H.].H.V.y.P Z . . . . . + o % + # # % & & 0 h / { >.%X=X$X>.} ) w @ o o       o       ",
". . X X = d.f.g.x.x.k.s.k.y.b.G.Z.b.R r.b.t.b.G.G.t.t.I . . . . . + + + + + o + # # > 0 w ( ] | | } ` Q Q 4 O X X . . X . X X . ",
". . X   n f.f.d.l.J.p.y.9.t.G.C.R m.F.H.Z.Z.Z.A.S.H.L.R * . . # % + + + o . . . . + % % 2 7 ! ^ ~ ( ! 7 4 : o o . X X . X X . X ",
". . X . 9.f.h.s.s.k.i.Z.u.y.q.0.e.r.b.R.!.F.n.A.].[.L.T . . . . % & % * . . . . . . + # > 1 4 7 8 8 8 5 - - o . . . X X   X X X ",
"# . X b d.f.g.l.a.p.p.u.M.C.b.t.e.u.V.A.V.n.!.!.[.H.y.E . . . . % N m % + . . . . . . # % % @ : : : - - o o X X X . . X   X X X ",
". . . n f.c.z.l.J.u.y.p.q.q.M.A.M.M.V.M.V.G.!.A.G.V.t.Z . . . . = m.U * . . . . X . . = @ o o o O o X o X X 3 3 .   X           ",
". . . E c.v.s.l.C.C.V.V.V.V.G.S.A.b.G.A.q.q.9.y.N.G.M.Z . . . # + a 9 . . . X . X X . . + . X . X X . X . o ) ' .               ",
"X X * d.f.g.k.i.u.i.u.Z.Z.S.G.L.!.F.b.M.n.*.b.Z.G.V.t.Z . . . . o . . X . . X X . . . . . . . X o . . . o o @ + . .             ",
"X X b f.f.g.k.i.u.y.t.M.V.S.!.H.H.F.G.A.G.R.G.G.A.Z.V.M   .     . . X . . . . . . . . . . . . . o o . . X . . .               X "
};
